<?xml version="1.0" ?><svg data-name="Layer 2" id="Layer_2" viewBox="0 0 35 35" xmlns="http://www.w3.org/2000/svg"><path d="M26.05,11.31a4.06,4.06,0,0,0-3.09,1,3.06,3.06,0,0,0-.84,2.15v3.65a.58.58,0,0,0,.58.59h2.18a1.22,1.22,0,0,1,1.2,1.43v.08a1.23,1.23,0,0,1-1.21,1H22.68a.58.58,0,0,0-.58.58l0,10.42a1.23,1.23,0,0,1-1.25,1.23h-.3a1.23,1.23,0,0,1-1.2-1.23l0-10.49a.57.57,0,0,0-.58-.58H16.61A1.22,1.22,0,0,1,15.39,20h0a1.21,1.21,0,0,1,1.22-1.22h2.21a.58.58,0,0,0,.58-.59V13.84A5,5,0,0,1,21.19,10c1-.79,2.83-.87,4.3-.76a1.23,1.23,0,0,1,1.14,1.22S26.61,11.29,26.05,11.31Z"/><path d="M25.37,34.75H9.63A9.39,9.39,0,0,1,.25,25.37V9.63A9.39,9.39,0,0,1,9.63.25H25.37a9.39,9.39,0,0,1,9.38,9.38V25.37A9.39,9.39,0,0,1,25.37,34.75ZM9.63,2.75A6.89,6.89,0,0,0,2.75,9.63V25.37a6.89,6.89,0,0,0,6.88,6.88H25.37a6.89,6.89,0,0,0,6.88-6.88V9.63a6.89,6.89,0,0,0-6.88-6.88Z"/></svg>